<svg width="14" height="14" viewBox="0 0 14 14" fill="none" xmlns="http://www.w3.org/2000/svg">
<path fill-rule="evenodd" clip-rule="evenodd" d="M13.6658 6.98285C13.6616 6.77532 13.5803 6.56907 13.4219 6.4107L7.5886 0.577371C7.26317 0.251934 6.73553 0.251934 6.41009 0.577371C6.08466 0.902808 6.08466 1.43045 6.41009 1.75588L10.8208 6.16663L1.16602 6.16663C0.705778 6.16663 0.332682 6.53972 0.332682 6.99996C0.332682 7.4602 0.705778 7.83329 1.16602 7.83329L10.8208 7.83329L6.41009 12.244C6.08465 12.5695 6.08465 13.0971 6.41009 13.4225C6.73553 13.748 7.26317 13.748 7.5886 13.4225L13.4219 7.58922C13.5025 7.50868 13.5631 7.41577 13.6038 7.3166C13.6418 7.22395 13.6637 7.12293 13.6658 7.01707C13.6661 7.00566 13.6661 6.99426 13.6658 6.98285Z" fill="black"/>
</svg>
